/* XPM */
static char *result[] = {
/* columns rows colors chars-per-pixel */
"66 50 245 2 ",
"   c #060100",
".  c #0B0200",
"X  c #0D0A04",
"o  c #130300",
"O  c #190400",
"+  c #150B00",
"@  c #1B0C00",
"#  c #1D1302",
"$  c #18130A",
"%  c #0D0B10",
"&  c #240D00",
"*  c #271600",
"=  c #351900",
"-  c #201712",
";  c #2F2208",
":  c #34230B",
">  c #392405",
",  c #3D3419",
"<  c #333C2B",
"1  c #432A04",
"2  c #47320E",
"3  c #493718",
"4  c #553C18",
"5  c #563D07",
"6  c #772806",
"7  c #662404",
"8  c #4B3724",
"9  c #674819",
"0  c #754F1E",
"q  c #5A4524",
"w  c #485133",
"e  c #644B26",
"r  c #6B542B",
"t  c #6B5A35",
"y  c #765934",
"u  c #71542C",
"i  c #7C643A",
"p  c #7B6336",
"a  c #76622F",
"s  c #5B451C",
"d  c #4C5748",
"f  c #495144",
"g  c #745A42",
"h  c #796749",
"j  c #746F58",
"k  c #717870",
"l  c #8A3215",
"z  c #943824",
"x  c #A7392A",
"c  c #B13E32",
"v  c #C73F33",
"b  c #915018",
"n  c #8C4626",
"m  c #994625",
"M  c #9C5735",
"N  c #9D5D2D",
"B  c #A64329",
"V  c #A2592B",
"C  c #A64B36",
"Z  c #B34737",
"A  c #AB5535",
"S  c #B95838",
"D  c #B1462C",
"F  c #88652B",
"G  c #836639",
"H  c #876535",
"J  c #926D35",
"K  c #8D753A",
"L  c #9D743A",
"P  c #987537",
"I  c #A8782D",
"U  c #BA6C3B",
"Y  c #A37B3C",
"T  c #AB7C3B",
"R  c #A77835",
"E  c #B97E3B",
"W  c #B57938",
"Q  c #AB702D",
"!  c #A2491D",
"~  c #C54E3D",
"^  c #C06F38",
"/  c #B75346",
"(  c #846E42",
")  c #836D48",
"_  c #897447",
"`  c #9A7B4B",
"'  c #987846",
"]  c #877856",
"[  c #967C52",
"{  c #8B6C4C",
"}  c #BB6B48",
"|  c #A57D47",
" . c #BB7642",
".. c #A47E59",
"X. c #857968",
"o. c #846864",
"O. c #C45C44",
"+. c #D55C53",
"@. c #E95A51",
"#. c #C56656",
"$. c #CD6A4C",
"%. c #7F805E",
"&. c #71877C",
"*. c #B9882E",
"=. c #AC8334",
"-. c #AC823A",
";. c #A4853D",
":. c #B38335",
">. c #BC8935",
",. c #B4843B",
"<. c #BB843B",
"1. c #B4893C",
"2. c #BC8B3C",
"3. c #B78836",
"4. c #BC943F",
"5. c #C38D35",
"6. c #C98D34",
"7. c #C38D3B",
"8. c #C38733",
"9. c #C5923D",
"0. c #CB943D",
"q. c #CD993E",
"w. c #C89738",
"e. c #D2953D",
"r. c #D39C3D",
"t. c #D8973B",
"y. c #9B8248",
"u. c #89845A",
"i. c #9D905C",
"p. c #AC8543",
"a. c #AC854A",
"s. c #A78647",
"d. c #B58241",
"f. c #B48B42",
"g. c #BC8C43",
"h. c #B28B49",
"j. c #BA8C4A",
"k. c #BA8445",
"l. c #BD9144",
"z. c #BD924C",
"x. c #B3934D",
"c. c #A88855",
"v. c #BB8D52",
"b. c #B28B56",
"n. c #AA9359",
"m. c #BC9354",
"M. c #B7945A",
"N. c #AA914E",
"B. c #96906F",
"V. c #AC8B62",
"C. c #B69A67",
"Z. c #B99975",
"A. c #A39568",
"S. c #9BA37C",
"D. c #8BA579",
"F. c #BBA976",
"G. c #ADA56F",
"H. c #C48E43",
"J. c #C58C48",
"K. c #D18F46",
"L. c #C49343",
"P. c #CB9543",
"I. c #CC9A44",
"U. c #C4944B",
"Y. c #CB954A",
"T. c #CC9B4C",
"R. c #C59948",
"E. c #D39544",
"W. c #D39B44",
"Q. c #DA9C45",
"!. c #D49349",
"~. c #D39C4A",
"^. c #DA9D4B",
"/. c #DB9749",
"(. c #C28E54",
"). c #D78C58",
"_. c #C39453",
"`. c #CA9652",
"'. c #C49A54",
"]. c #CB9C54",
"[. c #C2955A",
"{. c #C39B5B",
"}. c #CB9D5C",
"|. c #D39C52",
" X c #D79A55",
".X c #E29F53",
"XX c #E69D4C",
"oX c #CFA048",
"OX c #D4A146",
"+X c #D4A34C",
"@X c #DBA24C",
"#X c #DCA446",
"$X c #CBA35C",
"%X c #C7A356",
"&X c #D3A353",
"*X c #DCA252",
"=X c #DAAC5C",
"-X c #D8A75A",
";X c #E3A84C",
":X c #E2A758",
">X c #C69E65",
",X c #DB9568",
"<X c #D09569",
"1X c #C7A667",
"2X c #D6AB66",
"3X c #C5A778",
"4X c #CFB379",
"5X c #F1B669",
"6X c #F6C67A",
"7X c #7A9491",
"8X c #AA9785",
"9X c #8AA497",
"0X c #96AB90",
"qX c #B8A796",
"wX c #AEAB8D",
"eX c #98B8A8",
"rX c #9AB8B4",
"tX c #98AFA7",
"yX c #ADB0A4",
"uX c #AB9BA6",
"iX c #CEB79A",
"pX c #A9C2B2",
"aX c #D6C69B",
"sX c #EFCA98",
"dX c #DAC6A7",
"fX c #CEC6B2",
"gX c #C8CFB5",
"hX c #E1D2AC",
"jX c #B8D9CA",
"kX c #B6D9D3",
"lX c #B9CFC3",
"zX c #BCE8D8",
"xX c #BBE6E3",
"cX c #C7C4C8",
"vX c #C2E3D4",
"bX c #FFF7DA",
"nX c #F2E6CF",
"mX c #C7F7F7",
"MX c #CAEFE7",
"NX c #FFFBEA",
"BX c #FEFCF5",
"VX c #FDFDFD",
"CX c #F3FFF5",
"ZX c #ECECEF",
"AX c None",
/* pixels */
"AXAXAXAXAXAXAXAXAXAXAXAXAXAXAXAXAXAXAXAXAXAXAXAXAXAXAXAXAXAXAXAXAXAXAXAXAXAXAXAXAXAXAXAXAXAXAXAXAXAXAXAXAXAXAXAXAXAXAXAXAXAXAXAXAXAX",
"AXAXAXAXAXAXAXAXAXAXAXAXAXAXAXAXAXAXAXAXAXAXAXAXAXAXAXAXAXAXAXAXAXAXAXAXAXAXAXAXAXAXAXAXAXAXAXAXAXAXAXAXAXAXAXAXAXAXAXAXAXAXAXAXAXAX",
"AXAXAXAXAXAXAXAXAXAXAXAXAXAXAXAXAX  .   .   + # # # @ + + + .         AXAXAXAXAXAXAXAXAXAXAXAXAXAXAXAXAXAXAXAXAXAXAXAXAXAXAXAXAXAXAX",
"AXAXAXAXAXAXAXAXAXAXAXAXAXAX. o . > > e e e ( _ ( ( ( ( ( h y r 2 > * o o . AXAXAXAXAXAXAXAXAXAXAXAXAXAXAXAXAXAXAXAXAXAXAXAXAXAXAXAX",
"AXAXAXAXAXAXAXAXAXAXAXAX. o & 4 H F T f.;.j.'.z.'.].].{.'._.z.h.| ' G 4 & * .   AXAXAXAXAXAXAXAXAXAXAXAXAXAXAXAXAXAXAXAXAXAXAXAXAXAX",
"AXAXAXAXAXAXAXAXAXAX. . O e H [.z.~.P.2.9.9.P.9.9.L.I.9.>.3.<.2.}.k.v.b.G i 3 .     AXAXAXAXAXAXAXAXAXAXAXAXAXAXAXAXAXAXAXAXAXAXAXAX",
"AXAXAXAXAXAXAXAX. o o r n.a.}._.T.U.T.L.2.L.9.T.I.~.T.Y.H.g.L.L.<.Y.k.m.M.n._ _ 3 X . AXAXAXAXAXAXAXAXAXAXAXAXAXAXAXAXAXAXAXAXAXAXAX",
"AXAXAXAXAXAXAX  o q b.h.4.L.L.Y.U.I.g.7.L.I.Y.~.I.R.L.H.L.Y.H.<.P.P.H.j.j.x.J K _ ) o + AXAXAXAXAXAXAXAXAXAXAXAXAXAXAXAXAXAXAXAXAXAX",
"AXAXAXAXAXAXX . 4 M.].9.+Xr.oXoXP.Q.5.9.e.0.0.0.Q.W.P.P.0.P.0.9.5.P.Y.U.U.f.f.x.s.y.e o . AXAXAXAXAXAXAXAXAXAXAXAXAXAXAXAXAXAXAXAXAX",
"AXAXAXAXAXAX  4 M.}.+XQ.r.r.OXOX0.e.0.6.6.9.0.Q.P.0.E.W.E.K.0.7.P.P.Y.H.g.3.3.2.1.h.c.e o   AXAXAXAXAXAXAXAXAXAXAXAXAXAXAXAXAXAXAXAX",
"AXAXAXAXAX  . C.$X2.@X;XQ.W.I.I.q.r.r.0.E.W.0.I.~.I.P.0.P.P.P.P.L.R.L.2.2.2.7.R.7.d.b.V.q +   AXAXAXAXAXAXAXAXAXAXAXAXAXAXAXAXAXAXAX",
"AXAXAXAX  @ G M.U.9.^.Q.@X@XW.=XW.q.I.q.W.OXw.9.I.q.9.P.I.P.L.7.L.I.L.2.7.>.>.8.8.Y.k.b.V.q .   AXAXAXAXAXAXAXAXAXAXAXAXAXAXAXAXAXAX",
"AXAXAXo O u 4XT.I.@XW.r.*X*X^.*XOXI.W.0.9.I.9.I.9.P.L.I.I.P.9.7.7.P.7.7.2.>.>.8.7.L.J.m.' [ 3 X AXAXAXAXAXAXAXAXAXAXAXAXAXAXAXAXAXAX",
"AXAXAXO y <X`.Y.P.W.W.=X@X^.@XW.W.W.I.I.I.I.I.I.P.R.I.I.L.9.L.I.7.7.2.2.2.2.H.H.H.W <.f.c.` i o   AXAXAXAXAXAXAXAXAXAXAXAXAXAXAXAXAX",
"AXAXAX@ 0 }.*X:X^.#XOX;Xr.r.;X;XW.#XW.~.@XOXP.P.9.I.oXoX~.P.q.q.K.e.5.8.>.2.2.g.Y.:.L.1.Y s.i O X AXAXAXAXAXAXAXAXAXAXAXAXAXAXAXAXAX",
"AXAX. & $X X:XXX:X=X%X%X%X%X%X%X%X2X$X$X].L.P.W.W.P.q.9.P.R.'.R.x.x.N.N.n.n.n.n.c.h.U.z.g.| H 2 . AXAXAXAXAXAXAXAXAXAXAXAXAXAXAXAXAX",
"AXAX& 9 &X;XXX/.+X1XG.S.S.S.0XD.S.S.i.i.n.h.R.0.e.5.q.P.Y.{.n.S.D.D.pXeXeXrXeXeX0X%.N.f.,.T ;.0 +   AXAXAXAXAXAXAXAXAXAXAXAXAXAXAXAX",
"AXAXO ( =X#XXXXX%XG.gXzXjXjXeXpXeXpX0X0XA.M.<.0.6.r.0.I.R.M.pXeXzXzXmXmXmXmXMXmXeX%.n.1.J.E T y.2 . AXAXAXAXAXAXAXAXAXAXAXAXAXAXAXAX",
"AX  & 3X2X@X X`.%XF.gXjXjXjXzXxXvXkXkXlXwXN.2.e.!.P.I.P.%XF.zXxXMXjXrXrXrX7X&.&.< < s.,.E W P y.2 . AXAXAXAXAXAXAXAXAXAXAXAXAXAXAXAX",
"AX  e 1X=X+X X-X=XG.%.d w d &.&.9X9XtXyXA.n.|.8.P.7.I.7.L.C.D.9Xk &.f d d d , , 3 K h.L.<.:.;.y.t . AXAXAXAXAXAXAXAXAXAXAXAXAXAXAXAX",
"AX. H 2X+X;Xr.#XOXl.' ' K K ) { u.h ] ' _ %Xj.].<.|.Y.K.E.U.y.u.u.wXgXwXX.) a.;.N.[.T <.W R ;.y.t ; AXAXAXAXAXAXAXAXAXAXAXAXAXAXAXAX",
"AXo H $X+X#XQ.e.r.q.U.'.'.'.4XdXaXhXF.C.1X$X].Y.H.H.7.K.E.P.=.4XhXbXNXbXdX3Xm.L.L.<.W W <.T ;.s.i = AXAXAXAXAXAXAXAXAXAXAXAXAXAXAXAX",
"AX@ F $X-X@X0.OXOX+X}._.'.M.bXNXBXBXnX[ K $XP.q.I.5.I.W.q.9.;.aXNXCXCXCXNXwXL l.g.<.g.W :.:.=.;.t * X AXAXAXAXAXAXAXAXAXAXAXAXAXAXAX",
"AXO F &X+X@XW.I.OXL._.{.].4XNXBXVXBXnXwX' 1X&Xq.r.W.I.I.w.4.3XhXBXVXCXCXBXqXy.U.k.<.,.3.=.=.=.s.a ; . AXAXAXAXAXAXAXAXAXAXAXAXAXAXAX",
"AX@ J 2X7.0.W.W.W.9.`.}.'.sXNXVXVXVXfXdXy c.`.W.w.#XQ.E.Q.j.Z.fXVXVXZXZXZXqXM m.g.E ,.3.:.3.1.s.G : . AXAXAXAXAXAXAXAXAXAXAXAXAXAXAX",
"AX# J -Xr.6.0.e.0.I.|._.z.iXNXVXVXVXfXu.* V.}.0.r.e.E.E.K.(.8X8XfXNXZXZXuXo.` _.z.1.1.,.=.3.3.p.G :   AXAXAXAXAXAXAXAXAXAXAXAXAXAXAX",
"AX@ J :X6.e.Q.Q.~.~.`.{.>XC.yXcXcXcXB.: y ..2XI.r.6.P.Q.E.`.Z.h g 8XyXuXk 8 ..f.l.1.1.1.:.3.:.,.p , . AXAXAXAXAXAXAXAXAXAXAXAXAXAXAX",
"AX@ J :XQ.8.e.e.@XP.T.].{.>X] j X.o.= = ..sX].T.0.W.~.Y.E.k.Z.Z.y p > , 8 { m.f.1.;.1.:.,.,.3.p.G : . AXAXAXAXAXAXAXAXAXAXAXAXAXAXAX",
"AXX u }.L.#XQ.^..XW.@X0.8.L.Y H 2 5 b oX6X4.&XOXOXOXI.L.&X~.}.-X&X=.F J ..(.2.*.3.1.1.=.W ,.,.s.r 8   AXAXAXAXAXAXAXAXAXAXAXAXAXAXAX",
"AX. = }.&XP.W.Q.;XE.r.r.t.E.:X$X2X1X5X5X5.oXT.&XI.OX+XoXT.|.~.W.5.OX=X-XJ.7.9.5.g.g.1.=.,.,.T s.r @ AXAXAXAXAXAXAXAXAXAXAXAXAXAXAXAX",
"AX. > {.&Xq.@X^.:X|.q.q.t.6.^.+X-XT.!.!.q.I.$X].j. .,.*.E  X&X%X&XR.d.m.k.2.5.>.g.z.g.,.,.d.T -.2 . AXAXAXAXAXAXAXAXAXAXAXAXAXAXAXAX",
"AXAX1 J Y.~.P.W.].-X+XOXW.;X@X*XOX*X!. XT.I N N N V N V ! W Q U.}. Xm.j.g.L.q.2.2.j.l.d.k.k.T s.3 o AXAXAXAXAXAXAXAXAXAXAXAXAXAXAXAX",
"AXAX. 0 ].oXI.OXoX&X&X+XI.~.~.^.^.^.).,X} M A V A D O.U U S U A $.).!.|.I.W.H.8.g.L.3.,.<.| L ` o   AXAXAXAXAXAXAXAXAXAXAXAXAXAXAXAX",
"AXAX. r M.T.I.q.T.&XoX].Y.~.Q.^.:X!.U A C / } / S D S D z O.+.S B  . XE.W.W J.J.1.g.:.1.W R ' 4   % AXAXAXAXAXAXAXAXAXAXAXAXAXAXAXAX",
"AXAXAXo 3X%X&XOXW.~.!.~.T.~.OX+X|. .C / } / z A U ^ ).$.m ! ~ @.~ ! ^ !.~.I.H.k.z.p.1.I T P ' 8 X AXAXAXAXAXAXAXAXAXAXAXAXAXAXAXAXAX",
"AXAXAX  r {.l.+XW.W.!.|.|.~.oXoXR b C } / l } #.).).,X,X,X} c ~ +.B ! ^ ~.T.f.j.s.s.s.=.P s.4 o . AXAXAXAXAXAXAXAXAXAXAXAXAXAXAXAXAX",
"AXAXAXAX+ a 1X'.~.E.E./.!.~.9.R.Y 6 O.~ z z M { A A m n n z ~ @.@.$.l $.k.2.3.g.z.P Y L s.[ + . AXAXAXAXAXAXAXAXAXAXAXAXAXAXAXAXAXAX",
"AXAXAXAX  o 3X{.|.^.E./.E.~.P.l.j.m c +.c c M z B B m M M M +.@.+.D 6 J.E 3.1.-.R P Y L [ 3   AXAXAXAXAXAXAXAXAXAXAXAXAXAXAXAXAXAXAX",
"AXAXAXAXAX  & 3X>X|.E.t.e.W.I.U.'.R 6 B / +.x c x x B A C C #.#.C 6 V ,.7.I l.p.T ;.L | e .   AXAXAXAXAXAXAXAXAXAXAXAXAXAXAXAXAXAXAX",
"AXAXAXAXAXAX@ q >X>XK.0.9.W.U.U.L.9.b l 6 l / c C Z m m m n 6 7 l M  .<.3.1.R T | L | e . . AXAXAXAXAXAXAXAXAXAXAXAXAXAXAXAXAXAXAXAX",
"AXAXAXAXAXAX. o O c.{.].U.+XJ.|.0.W.P.7.g.d.E U E  .U U J.E E d. .(.(.I I T R Y P ` 1 o o AXAXAXAXAXAXAXAXAXAXAXAXAXAXAXAXAXAXAXAXAX",
"AXAXAXAXAXAXAXAXo o i 3X[.U.-XH.q.0.q.+XI.I.Y.].].Y.|.7.Y. XL.U.{.m.I T R P ' ` ` O .   AXAXAXAXAXAXAXAXAXAXAXAXAXAXAXAXAXAXAXAXAXAX",
"AXAXAXAXAXAXAXAXAX. o 3 Z.1X>X|.L.H.Y.Y.&X|.T.R.9.9.5.w.q.7.Y.J.,.-.Q Y a.` [ 4 o + AXAXAXAXAXAXAXAXAXAXAXAXAXAXAXAXAXAXAXAXAXAXAXAX",
"AXAXAXAXAXAXAXAXAXAXX . o y M.v.[.(.`.`.L.].~.2.w.*.w.*.5.Y.U.k.d.Y | | H t . + . AXAXAXAXAXAXAXAXAXAXAXAXAXAXAXAXAXAXAXAXAXAXAXAXAX",
"AXAXAXAXAXAXAXAXAXAXAXAX. . & 9 b.b.v.'.Y.J.K.H.P.>.L.L.1.3.R Y P ' y y o o X AXAXAXAXAXAXAXAXAXAXAXAXAXAXAXAXAXAXAXAXAXAXAXAXAXAXAX",
"AXAXAXAXAXAXAXAXAXAXAXAXAX  . + O 4 y 9 M.v.(.v.v.[.h.h.x.M.` 4 s q O o o . AXAXAXAXAXAXAXAXAXAXAXAXAXAXAXAXAXAXAXAXAXAXAXAXAXAXAXAX",
"AXAXAXAXAXAXAXAXAXAXAXAXAXAXAXAX  + # * * * 8 { h g j t q w # . . $ . AXAXAXAXAXAXAXAXAXAXAXAXAXAXAXAXAXAXAXAXAXAXAXAXAXAXAXAXAXAXAX",
"AXAXAXAXAXAXAXAXAXAXAXAXAXAXAXAXAXAXAXAX$ $ - - - - # $ + X X % AXAXAXAXAXAXAXAXAXAXAXAXAXAXAXAXAXAXAXAXAXAXAXAXAXAXAXAXAXAXAXAXAXAX",
"AXAXAXAXAXAXAXAXAXAXAXAXAXAXAXAXAXAXAXAXAXAXAXAXAXAXAXAXAXAXAXAXAXAXAXAXAXAXAXAXAXAXAXAXAXAXAXAXAXAXAXAXAXAXAXAXAXAXAXAXAXAXAXAXAXAX",
"AXAXAXAXAXAXAXAXAXAXAXAXAXAXAXAXAXAXAXAXAXAXAXAXAXAXAXAXAXAXAXAXAXAXAXAXAXAXAXAXAXAXAXAXAXAXAXAXAXAXAXAXAXAXAXAXAXAXAXAXAXAXAXAXAXAX"
};
