/* XPM */
static char *db568df6b3b64a06dc88d8abe1244221pUGTEEy05v6VVC2s[] = {
/* columns rows colors chars-per-pixel */
"47 47 25 1 ",
"  c #282828",
". c #385040",
"X c #181818",
"o c #888888",
"O c #506050",
"+ c #C0FFC0",
"@ c #608060",
"# c #908020",
"$ c #505838",
"% c #403030",
"& c #C8B010",
"* c #F8E838",
"= c #584038",
"- c #806050",
"; c #889888",
": c #9870D0",
"> c #7050A8",
", c #A8B0A8",
"< c #502080",
"1 c #F8E8B0",
"2 c #90C0E8",
"3 c #F8F8F8",
"4 c #D08070",
"5 c #F8A8A0",
"6 c white",
/* pixels */
" . Xo   X ... ....  OO  X ... ....  OO  X ... +",
"X  X@ .. ....   XX O.O.. ....   XX O.O.. .... +",
" @@Xo ..   X   O. ......   X   O. ......   X  +",
" ..X.    O. .OO..  ...   O. .OO..  ...   O. .O+",
"X  Xo  O@.. .O..    X  O@.. .O..    X  O@.. .O+",
"  .X@ ..O.. .... .O. ...O.. .... .O. ...O.. ..+",
" ..Xo ....  .... ...  ....  .... ...  ....  ..+",
" ..X@  .  .OO .....    .. .OO .....   X  ..   +",
" . Xo  . . .. ....  OO  X ... ....  OO OO   .O+",
"X  X@ . #. ..   XX O.O.. ....   XX O.O ..  .O@+",
" @@Xo  #$% X   O. ......   X   O. .... ..  O.O+",
" ..X.  &$%  .OO..  ...   O. .OO..  ...     ...+",
"X  Xo  &&%%               . .O..    X OO. ....+",
"  .X@ %*&&$%$$$$$$$###$$$$. .... .O. .O..    X+",
" ..Xo %&*&&&&***&&&&&&&&&##$  .. ...  .... .. +",
" ..X@ %&*#$$             #&*&$  ..   . .. .OO +",
" . Xo %#*#$$   $=--;;;;--   #&*$  .O..  X ... +",
"X  X@  #*#$  $=-;:>>>:,,,,;-  #*$ ...... .... +",
" @@Xo  $*#$ $=-:><   <>:11,,;- #*$ .....   X  +",
" ..X.  $*#  =-:<       <:111,,; #*$      O. .O+",
"X  Xo  $*&  -2< <<<<<<< <:1111,; #*  . O@.. .O+",
"  .X@ .%*& $-2 <<>>>>><< <1333,,- &$ ...O.. ..+",
" ..Xo  %&* =:3<>44>>>44><<33333,; ##$.....  ..+",
" ..X@   #* =:3244>>>>>44<<333331,- &$XX  ..   +",
" . Xo   #* =>334><<<<<>4><333331,; ##$ OO   .O+",
"X  X@ . $*# <<33><   <>44<<33311,, $&$ ..  .O@+",
" @@Xo .. *# ><333     >45<>3333312- &$ ..  O.O+",
" ..X.    #* ><43333   >45<>3333313- &#     ...+",
"X  Xo  O $*# >454 333 433>:3333233- &#OO. ....+",
"  .X@ ..O $* >451>   >133>33223332= *#O..    X+",
" ..Xo ... $*# >451><>154>:333122;-% *&.... .. +",
" ..X@ X  . $*# >4511154>:111,,;;-=% *& .. .OO +",
" . Xo  OO   $*#  <   <>:,,,,;;;-=%  *&  X ... +",
"X  X@  ..  . $*&#   =--------==   $$*&.. .... +",
" @@Xo  ..  O.  $&&#$           $$##&&#..   X  +",
" ..X.      ....  $###&&&&&&&#####$$#&#   O. .O+",
"X  Xo OO. ....       %%%%%%%       $&$ O@.. .O+",
"  .X@ O..    X O@.. ..O..    X O@.%%$...O.. ..+",
" ..Xo .... .. .OO.. ...... .. .OO..%......  ..+",
"X.  @X                                        +",
"X   O.@@@O@@@O@@@O@@@O@@@O@@@O@@@O@@@O@@@O@@@O+",
"X@XXXXXXXXXXXXXXXXXXXXXXXXXXXXXXXXXXXXXXXXXXXX+",
"X @  ..  @.  ..  @.  ..  @.  ..  @.  ..  @.  .+",
"XXXXXX  XXXX    XXXX    XXXX    XXXX    XXXX  +",
"@O@OO@OO@O.OOOOO@O.OOOOO@O.OOOOO@O.OOOOO@O.OOO+",
"XXXXXXXXXXXXXXXXXXXXXXXXXXXXXXXXXXXXXXXXXXXXXX+",
"                                              +"
};
