/* XPM */
static char *result[] = {
/* columns rows colors chars-per-pixel */
"125 94 16 1 ",
"  c #553559",
". c #C4ACCC",
"X c #EDDDF1",
"o c #84658C",
"O c #D9C4DD",
"+ c #9C7DA4",
"@ c #B094B8",
"# c #6D4D75",
"$ c black",
"% c #650069",
"& c #840088",
"* c #A800A8",
"= c #311831",
"- c #3D2441",
"; c #3D0041",
": c white",
/* pixels */
" .X. .X. .X. .X. .X. .X. XX. .X. .X. .X. .X. .X. .X. .X. .XX .XX. XX. .X. .X. .X. .X. .X. .X. .X. .X. .X. .X. .X. .X. .X. .X.",
"oXO.o.O.o.OXo.O.o.O.o.O.o.OXo.O.o.O.o.O.o.O.o.O.o.O.o.O.o.OOo.OO.oOO.o.O.o.O.o.O.o.O.o.O.o.O.o.O.o.O.o.O.o.X.oXO.o.O.o.O.o.O.",
" +@+ +@+ +@+ +@+ +@+ +@+ +@+ +@+ +@+ +@+ +@+ +@+ +@+ +@+ +@@ +@@+ @@+ +@+ +@+ +@+ +@+ +@+ +@+ +@+ +@+ +@+ +@+ +@+ +@+ +@+ +@+",
"  o     o   o   o   o   o   o   o   o   o   o   o   o   o   o    o   o   o   o   o   o   o   o   o   o   o   o   o   o     o ",
" .X. OOOOXXXXOOOOOXXXXXXXXXXXXXXOOOOOOOOOOXXXXOOOOOOOOOOOOOOOOOOOOOOOOOOOOOOOOOOOOOOOOOOOOOOOOXXXXXXXXXXXXXXOOOOOXXXXOOOO .X.",
"o.O.oO#O+.OX.+.O+.O.+OXXXO.@++.OOOXO@+O.o     ##o+.OOO.+#   #o++o#   #+.OOO.+o##     o.O+@OOOOO+++@.OXXXO+.O.+O.+.XO.+O#Oo.O.",
" +@+ O.O@+.X+.O+@O.OOXXO@+#  #@.+..OOX+O.+$$$$$$$   #o+.OOO+o#  #o+OO..+o#   $$$$$$$+.O+.XO..+.@#  #+@OXXOO.O@+O.+..+@O.O +@+",
"  o  O+..@++O.+@O.OXXOO+o+.OXO+OOo+@.OX.O.+ % % %$$$$  #++@.OOOOOO.@++# $$$$$ % %  +.O.XO.@+oOO+OXO.+o+OOXXO.O@+.O++@X.+O  o ",
" .X. O#+.OXO.+@O.OXXO+o  oo++.O++@#o@.OO.@+#% % % % %$$  #+++@..@+++# $$% % % % % #+@.OO.@o#@++O.++oo  o+OXXO.O@+.OXO.+#O .X.",
"o.O.oO+#++++++O.@XXO+# o+.OO.+OO+   o@..@+# % % % % % %$$  #o++++o# $$% % % % % %  #+@..@o   +OO+.OO.+o #+OXX@.O++++++#+Oo.O.",
" +@+ O.o    oO.@OXO+#o+@@+.OO.+.O+#  o+@+#$ &#&#&#& % % %$$$  ## $$$% % % &#&#&#&# $#+@+o  #+O.+.OO.+@@+o#+OXO@.Oo    o.O +@+",
"  o  O..+o oO@+OXO+o +.OXO@+  o+OO.+# ## $% &#&#&#&#& % % % $$$$$ % % %#&#&#&#&o&#% $ ## #+.OO+o  +@OXO.+ o+OXO+@Oo o+..O  o ",
" .X. OO+.O.O@+OOO+o $ +.OXO@+$$ +@.OOO.+$ % &#*+*o*+*#&#% % % % % % %#&#*+*+*o*o&#%  $+.OOO.@+ $$+@OOO.+ $ o+OOO+@O.O.+OO .X.",
"o.O.oX.O+.O++.XX@+ $ $ o++o#  %$ oOo##  % % &#*+*+*+*@*#&#& % % % &#&#*o*+*+*o*o*#% %  ###o.o $ % #o++o $ $ +@XX.++O.+O.Xo.O.",
" +@+ X@.O++.XXX.+o $% $ # $$$ % $$o+$$$$% %#&#*+*+*+*@*o*#&#&#&#&#&o*o*o*o*+*o*o*#& % $$$$+o$$% %$$$ # $% $ o+.XXX.++O.@X +@+",
"  o  X+@.OXOO.@o# $ % %$$$% % % %   % % % &#*+*+*+*+*@*@*+*+&+&#&+*o*o*o*o*+*+*o*o*#% % %     % % % $$$ % %$ #o+.OOXO.@+X  o ",
" .X. Xo+@.O.@+o# $% % % % % % % %$$$% % &#&#*o*+*+*+*@*@*+*+*+*+*+*o*o*o*o*+*o*o*o*#&#% % $$$ % % % % % % % $ #o++.O.@+oX .X.",
"o.OXoX  o+++o#  $ % % % % % %#& % % % %#&#*o*o*+*+*+*+*@*+*+*+*o*+*o*o*o*o*+*o*o*o*o*#& % % % %#& % % % % %  $  #o+++o  XoXO.",
" +@+ X$$   $o+o$% %#& % % % &#&#& % &#&#&o*o*o*+*+*+*+*@*@*+*+*o*+*+*o*o*o*o*o*o*o*o*#&#&#% %#&#&#% % % %#&   $o+o$   $$X +@+",
"  o  X #++# +O+ %#&#&#% % %#&#*+&#% &#&o*o*o*o*+*+*+*@*@*@*+*+*o*o*+*o*o*o*o*o*o*o*o*o*#&#% &#*o&#& % % &#*#&  +O+ #++# X  o ",
" .X. X#+..+#o+# &#*#&#&#&#&#&o*+*#&#*#*o*o*o*o*+*+*@*@*+*+*+*+*o*o*+*o*o*o*o*o*o*o*o*o*o*#*#*#*o*o&#&#&#&+*o&# #+o#+..+#X .X.",
"o.O.oX+.XX.+   #&#*o*#*#*#*#*o*+*+*o*o*o*o*o*o*+*+*@*@*+*+*+*+*+*o*+*o*o*o*o*o*o*o*o*o*o*o*o*o*o*o*o*+*o*+*o*#&   +.XX.+Xo.O.",
" +@+ X+.OO.+ $&#&#*o*o*+*+*o*o*+*+*o*o*o*o*o*o*o*+*+*@*@*+*+*+*+*+*+*o*o*o*o*o*o*o*o*o*o*o*+*o*o*o*+*+*o*+*o*#&#$ +.XO.+X +@+",
"  o  X#+..+#  oo*o*o*o*o*+*o*o*+*+*o*o*o*o*o*o*o*+*+*@*@*+*+*+*+*+*+*o*o*o*o*o*o*o*o*+*+*o*+*o*o*o*o*o*o*+*o*o&o  #+..+#X  o ",
" .X. O #++#+.OO@oo*o*+*+*+*o*o*+*+*o*o*o*o*o*o*o*+*+*+*@*+*@*+*+*+*+*o*o*+*+*+*o*o*o*+*+*o*+*+*o*o*+*+*o*+*o*o@OO.+#++# O .X.",
"o.X.oO$$   OO@+@+o*o*+*+*o*o*o*+*+*+*o*o*o*o*o*o*+*+*+*+*@*@*+*+*+*+*o*o*+*+*o*o*o*o*+*o*+*+*+*+*+*+*+*o*+*o*+@+@OO   $$OoXO.",
" +@+ O$$ +O@.OXO@+*o*+*+*o*o*o*+*+*+*o*o*o*o*o*o*o*o*+*+*@*@*@*+*+*+*+*o*+*+*o*o*o*o*o*+*o*+*+*+*+*+*+*o*+*o+@XXO.@O+ $$O +@+",
"  o  O  +O+.O@++OO+o*+*+*o*o*o*+*+*+*+*o*o*o*o*+*o*o*+*+*+*@*@*+*+*+*+*+*+*o*o*o*o*o*o*o*o*o*+*+*+*+*+*o*o*+OO++@O.+O+  O  o ",
" .X. O +O+.O@o  o@Oo*+*+*o*o*o*+*@*@*+*o*o*o*o*+*o*o*+*+*+*@*@*@*+*+*+*+*+*o*o*o*o*o*+*o*+*+*+*+*+*+*+*o*o*O@o  o@O.+O+ O .X.",
"o.O.oO+O+.O@o $$ +@o*o*+*o*o*o*o*+*@*@*o*o*o*o*+*+*o*o*o*+*@*@*@*+*+*+*+*+*+*o*o*o*o*o*o*+*+*+*+*+*+*+*o*o*@+ $$ o@O.+O+Oo.O.",
" +@+ OO+.O@+ $% $O+o&o*+*o*o*o*o*+*@*@*o*o*o*o*+*+*o*+*+*+*@*@*@*@*+*+*+*+*+*+*o*o*o*o*o*o*+*+*+*+*+*+*o*o*+O$% $ +@O.+OX +@+",
"  o  O+.O@o $ % %  #&o*o*o*o*o*o*+*+*@*@*+*o*o*o*+*+*+*+*+*@*@*@*@*+*+*+*+*+*+*+*o*o*o*+*+*+*+*+*+*+*o*o*o*   % %$ o@O.+X  o ",
" .X. O.O+ O.+ % %$$#&+*o*o*o*o*o*+*+*@*@*+*o*o*o*+*+*+*+*+*@*@*@*@*@*+*+*+*+*+*+*+*o*+*+*+*+*+*+*+*+*o*+*o*$$ % %+.O +O.X .X.",
"oXO.oOO+@OXO@ %#& %#&+*+*o*o*o*o*o*+*+*@*+*+*o*o*o*+*+*+*@*@*@*@*@*@*@*@*+*+*o*+*+*+*+*+*+*+*+*+*+*+*+*+*+* %#& %@OXO@+OOo.O.",
" +@+ OO@OOOOo &#& %#&+*+*o*o*o*o*o*+*+*@*@*+*+*o*+*+*+*+*@*@*@*@*@*@*@*@*+*+*+*o*+*+*+*+*+*+*+*+*+*o*o*o*+& %#&#%oOOOO@OO +@+",
"  o  O@OX@+@  &#&#%#&+*+*+*o*o*o*o*o*+*@*@*+*o*+*+*+*+*+*@*@*@*@*@*@*@*+*+*+*+*o*o*+*+*+*+*+*+*+*+*o*o*o*o& &#&#% @+@OO@O  o ",
" .X. O.O+  +$#&#&#&#*+*o*+*o*o*o*o*o*+*+*@*@*+*+*+*+*+*+*@*@*@*@*@*@*@*@*+*+*+*o*o*o*o*+*+*+*+*+*+*o*o*o*o*o&#&#&$+  +O.O XX.",
"o.O.oOO+ +O. #&#*#&#*+*+*+*o*o*o*o*o*@*@*+*@*@*+*+*+*+*@*@*@*@*@*@*@*@*@*+*+*+*o*o*o*o*+*+*+*+*+*o*o*o*o*o*o&#&#& .O+ +OOo.O.",
" +@+ OO +O.#%#&#*o*+*+*+*+*+*o*o*o*o*o*@*+*@*@*+*+*+*@*@*@*@*@*@*@*@*@*@*+*+*+*o*o*o*o*o*+*+*+*+*o*o*o*o*o*+*o&#& #.O+ OO +@+",
"  o  X++OO+$%#&o*o*+*o*+*+*+*+*o*o*o*o*@*+*@*@*@*@*@*@*@*@*@*@*@*@*@*@*@*+*+*+*o*o*o*o*+*+*+*+*+*o*o*o*o*o*+*+*#& $+OO++X  o ",
" .X. X+OO+  %#&o*+*+*o*+*+*+*+*o*o*o*o*o*+*+*@*@*@*@*@*@*@*@*@*@*@*@*@*@*+*+*+*o*o*+*o*+*+*o*+*+*o*o*o*o*o*o*+*+& % +OX+X .X.",
"o.O.oXO.+ $ &#&o*+*+*o*+*+*+*+*+*o*o*o*o*+*+*@*@*@*@*@*@*@*@*@*@*@*@*@*@*@*@*+*o*o*+*o*+*+*+*+*+*o*+*o*o*o*o*+*+&#%$ +.OXo.O.",
" +@+ XO+ $% &#*o*+*o*o*+*+*+*+*+*o*o*o*o*+*+*+*+*+*+*@*@*@*@*@*@*@*@*@*@*@*@*@*+*+*+*o*o*+*+*+*+*o*+*+*+*+*o*+*+&#% $ +XX +@+",
"  o  X+ $ % &#*o*+*o*o*+*+*+*+*+*+*o*o*@*+*+*+*+*+*+*@*@*@*@*@*@*@*@*@*+*@*@*@*@*+*+*o*o*+*+*+*o*+*+*+*+*+*o*+*o&#% %$ +X  o ",
" .XX X+$% %#*o*+*+*o*o*+*+*+*o*+*+*+*o*+*+*+*+*+*+*+*+*@*@*@*@*@*@*@*@*+*+*+*@*@*+*+*o*o*+*+*+*+*+*+*+*+*+*+*+*o*#& % $+X .X.",
"o.O.oX  % &#*o*+*+*o*o*o*+*+*o*+*+*+*+*+*+*+*+*+*+*+*+*+*@*@*@*@*@*@*@*@*+*+*@*@*+*+*o*+*+*+*o*+*+*+*+*+*+*+*o*o*o*#% % Xo.O.",
" +@+ X$ %#&o*o*+*+*o*o*o*+*+*o*+*o*+*+*+*+*+*o*+*+*+*+*+*+*@*@*@*@*@*@*@*+*+*+*+*+*+*o*+*+*+*o*o*o*+*+*o*o*+*o*o*o*#& %$X +@+",
"  o  O% &#*o*o*+*+*o*o*o*+*+*+*+*o*+*+*+*+*+*o*o*o*o*+*+*+*@@@..@@@@*@*@*+*+*+*+*+*+*+*+*+*+*o*o*o*+*o*o*o*o*o*o*o*+*#% O  o ",
" .X. O%#&#*o*+*+*+*+*o*o*+*+*o*o*o*o*+*+*+*+*+*+*o*o*o*+*+@OXXXXXXO@@@*@*@*+*+*o*+*+*+*+*+*+*o*o*+*+*o*o*o*o*o*o*o*o*#& O .X.",
"o.O.oO%#&o*o*o*o*+*+*o*o*+*+*o*o*o*o*o*+*+*+*+*+*o*o*o*++..XXXXXXXXO.+*@*+*+*+*o*+*+*+*+*+*+*o*+*+*+*o*+*o*o*o*o*o*o*o& Oo.O.",
" +@+ O&#&o*o*o*o*o*o*o*o*+*+*o*o*+*o*o*+*+*+*+*+*o*o*o*+.OXO.@..@.OXO.++*+*+*+*o*+*+*+*+*+*o*+*+*+*+*+*+*o*o*o*o*o*o*o&#O +@+",
"  o  O&#*o*o*o*o*o*o*o*o*+*+*o*o*+*o*o*o*o*+*+*+*o*o*o*+O.O@+.XX.+@OXO++*+*o*o*o*o*+*+*o*+*+*+*+*+*+*+*+*o*o*+*o*o*o*o&#O  o ",
" XX. O&o*o*o*o*+*+*o*o*o*+*+*o*o*+*o*o*o*o*+*+*o*o*o*o++OXX++.oo.++..@++*+*o*o*o*o*+*+*o*+*o*+*o*+*+*+*+*+*+*+*+*o*o*o&oO XX.",
"o.O.oO&o*o*o*o*+*+*o*o*o*+*+*o*o*o*+*o*o*o*+*OOXO+*o*+o+OXOo++  ++oOXO++++*o+OXOOo*+*+*o*+*o*o*o*+*+*+*+*+*+*+*+*o*+*o&oOo.O.",
" +@+ O&+*o*o*o*+*+*o*o*o*+*o*o*o*o*+*o*o*o*o*+OXOO+o++O+OO.o#o++o#o.OO+O++*+OOXO+o*+*o*o*o*o*o*o*+*+*+*o*+*+*o*+*+*+*+&oO +@+",
"  o  O&+*o*o*o*+*+*oXo*o*o*o*o*+OOOXOOXO+o*o*+.O.@O+##+o@..+o####o@O.@++##+O@.O.+o*o*+OXOOXOOO+o*+*+*+*o*X*o*o*+*+*+*+&oO  o ",
" .X. O&+*+*o*o*+*+*oOX*o*o*o*o+OXXXXXOXOOO+ooo+.O.@Oo #o+@..@oooo@..@+o# oO@.O.+oo*+OOOXOXXXXXO+*o*+*+*oXO*o*o*o*+*+*+&oO .X.",
"o.O.oO&+*+*o*o*+*+*o@OXo*o*o+OOXXOOOOXO.....@ o+.OOXXXXO.+@@..O....++.OXXXXOO.+o @.....OOOOOOXXOO+*o*o*XO@*o*o*o*+*+*+&oOo.X.",
" +@+ O&+&+*o*o*+*+*o+@OOXXOOO@OO.@@.@+@@@++++o #o++@@@@.XO.+@@@@@@+.OX.@@@@++o# o++++@@@+@.@@.OO@OOOXXOO@+*o*o*o*+*+*+&oO +@+",
"  o  O&+&+*o*o*+*+&o o++.@@@@O..++@oo#    #oo $   ##oo+@@.X.++++++.X.@@+oo##   $ oo#    #oo@++..O@@@@.++o *o*o*o*o*o*o&oO  o ",
" .X. O&+&+*+*o*+*o&o$ o+o@++O.+@o#o  ===o@.OO@+# -----   +.X.#  #.X.+   ----- #+@OO.@o===  o#o@+.O++@o+o $&o*o*o*o*+*o&oO .X.",
"o.O.oO&+&+*+*o*+*o&o%$ ### O.@#o ===$ o@XXXXXOO.@++.XO.@o +.X+  +X.+ o@.OX.++@.OOOXXXX@o-==== o#@.O ### $-&o*o*o*o*+&o&oOo.O.",
" +@+ O&+&+*+*o*+*o*o% $$$$.X@+ $$ % % @XXO@O.@+++.OXOXXO.o +O.##.O+ o.OXXOXO.+++@.O@OXX@;-;-;$$ +@X.$$$$; &o*o*+*+*+&o&oO +@+",
"  o  O&+&o*+*o*+*+*o% % -@OX+#$ % % %#OXO+.+o+.@.XXXXOXXXO++.X++X.++OXXXOXXXX.@.+o+.+OXO% % %-;$#+XO@-;-%#&o*+*+*+*+*o&oO  o ",
" .X. O&o&o*+*o*+*+*o&#% %+OX+$% %#%#%@O@.o# +.O+XXO.@++@.OXO+OXXO+OXO.@++@.OXX+O.+ #o.@O@#%#% %-$+XO+ % %o&o*+*+*+*+*o&oO XX.",
"o.O.oO&o*o*o*o*+*o*o&o%#%+.O@ %#%+&o&OOo+ $$.O+.O.@@+.O.+@OXO+OO+OXO@+.O.+@@.O.+O.$$ +oOOo&o&#% ;@O.+ %#&o*+*+*+*+*o*o&oOoXO.",
" +@+ O&o*o*o*o*+*o*o*o&o& +.. %o&+&o+O@oo$%+O+@O.@+OOXOOOOOOXOXOOXOOOOOOXOO+@.O@+O# $oo@O+&o&o&#%..+ o&o&o*+*o*+*+*o*o&oO +@+",
"  o  O&o*o*o*+*+*o*o*o&o&$ +OO&o*+*o@O+ $ %+.+.O@@OXX.@+@@@@.OOXO.@@@@+@.OXO@@O.+.+#;$ +O@*o&o&oOO+ $o&o&+*+*o*+*+*o*o&oO  o ",
" .X. O&o*o*o*+*+*o*o*o*o& $ o#&o*+*++o $% %++oO.+OXX@+@OXOO.@.OO.@.OOXO@+@XXO+.Oo+o %-$ o+*o*o*o#o $%o*o*+*o*o*+*+*o*o&oO .X.",
"o.X.oO&o*o*o*+*+*o*o*o*o& %$$$&o*+*+&$$ % % + @@oXOO+@O@+o@O.OXXO.O@o+@O@+OOXo@@ o##% ;$$o*o*o*o$$$ %o*+*+*o*o*o*+*+*+&oOo.O.",
" +@+ O&o*o*o*+*+*o*o*o*o&#% % *o*o*+% % %#&$ ++o.O..+O@o  o@OXXXXO@o  o@O+..X.o+  $o% %-;o*o*o*o; ; %o*+*+*o*o*o*+*+*+&oO +@+",
"  o  O&o*o*o*o*o*o*o*o*o*o% % *o*+*+% %#%#& $$o +X@.o@+ $$ @.OXXO.@ $$ +@o.@X+ o $;o&#% %o*+*o*o% %#&o*+*+*o*o*o*+*+*+&oO  o ",
" .X. O&o*o*o*o*o*o*o*o*o*o&#%#*o*o*o% %#&o& % # +O+@#o $% %+@@OO@@+$;-$ o#@+O+ #;-%o&o% %o*+*o*o%#%o&o*+*+*o*o*o*+*+*o&oO .X.",
"o.O.oO&o*o*o*o*o*o*o*o*o*o&o&o*o*o*o&#%+&o& %    +o+  $ % %o@OXXO@o % ;$  +o+ - % %+&o&#%+*+*o*o&o&o&o*+*+*+*o*o*o*o*o&oOo.O.",
" +@+ O&o*o*o*o*o*o*o*o*o*o*o*o*o*+*o&#&+&o&#% $$$    $% % o+@.OO.@+o% %-$- # $$$%#%+&o&+&+*+*o*o*o&o*o*+*+*o*o*o*o*o*o&oO +@+",
"  o  O&o*o*o*o*o*o*o*o*o*o*o*o*o*+*o*o&+*o&o%#%  $$$$ % &#+O+@..@+O+&#% ;-$$$-; %#&+*o*+*+*o*o*o*o*o*o*+*+*o*o*+*o*o*o&oO  o ",
" .X. O&o*o*o*o*o*o*o*o*o*o*o*o*+*+*o*o*+*o&o&#% % % % %#*+@Oo+..+oO@+o& % ; ; %#&+&+*+*+*+*o*+*o*o*o*o*+*+*o*o*+*o*o*o&oO .X.",
"o.OXoO&o*o*o*o*o*o*o*o*o*o*o*+*+*+*o*o*+*+*o&o%+O@+ % &o++OXo+@@+oXO++*#% %+@O+o&+*+*+*+*+*o*+*+*+*o*o*+*+*o*o*o*o*o&o&oOo.O.",
" +@+ O&o*o*o*o*o*o*o*o*o*o*o*+*+*+*o*o*+*+*o&o OXO. %#*o+@OOo@OO@oOO@+*o& %.OXOo&+*o*+*+*+*+*+*o*+*o*o*+*+*o*+*o*o*o&o&oO +@+",
"  o  O&o*o*o*o*o*o*o*o*o*o*+*+*+*+*o*o*+*+*o*oOXO.+ &oo+@OX.+.@@.+.XO@+o*#%+.OXO*+*o*+*+*o*+*+*o*+*+*+*+*+*o*+*o*o*o&o&oO  o ",
" .X. O&o&o*o*o*o*o*o*o*o*o*+*o*o*+*o*o*o*+*o*+XO.+%oo++@OXO@+.OO.+@OXO@++o& +.OX++*o*+*+*+*+*+*+*o*+*+*+*+*o*+*o*o*o&o&oO .X.",
"o.O.oO&o&o*o*o*o*o*o*o*o*o*+*o*o*o*o*o*o*o*ooOX.+ %o+@..XO.++OXXO++.OX..@+*# +.XOo*o*+*+*+*+*+*+*+*+*+*+*+*o*+*+*o*+&o&oOoXO.",
" +@+ O&o&o*o*o*o*o*o*o*o*o*o*o*o*o*o*o*o*o*+OO.+ +OOXXXX.O@+@OXXO@+@O.XXXXOO+ +.OO+o*+*+*+*+*+*+*+*+*+*o*o*o*o*o*o*+&o&oX +@+",
"  o  O&o&o*o*o*o*o*o*o*o*o*o*o*o*o*o*o*o*OO.++@OO@++++@O.O++.XXXX.++O.O@++++@OO@++.OO+*+*+*+*+*+*+*+*o*o*o*o*o*+*o*o&o&oX  o ",
" .X. O&o&o&o&o*o*o*o*o*o*o*o*o*o*o*o*.OOO.++@OO@++@OXXOO@.+@OXXXXO@+.@OOXXO@++@OO@++.OOO.+*o*+*+*+*+*o*o*o*o*o*o*o*o&o&oX .X.",
"o.O.oO&o&o&o&o&o*o*o*o*o*o*o*@..OOOXXXXX.+@OOO@+@OOXXOXO+.@.OXXXXO.@.+OXXXXOO@+@OOO@+.XXXXXOOO..@o*o*o*o*o*o*o*o*o*o*o&oXo.O.",
" +@+ OOOOOOOOOOOOOOOOOOOOOOOOOOOOOOXXXOOOOOOOXXXXXXXXXXXXXXXXXXXXXXXXXXXXXXXXXXXXOOOOOOOXXXOOOOOOOOOOOOOOOOOOOOOOOOOXXXXX +@+",
"  o   o o o o o o + o o o o o o + o + o o o o o o o o o o   o oo o   o o o o o o o o o o + o + o o o o o o + o o o o o o   o ",
" .X. .X. .X. .X. .X. .X. .X. XX. .X. XXX .X. .X. .X. .X. .X. .XX. .X. .X. .X. .X. .X. .X. .X. .X. .X. .X. XX. .X. .X. .X. .X.",
"o.O.o.O.o.OXo.O.o.O.o.O.o.X.o.O.o.O.o.O.o.O.o.O.o.O.o.O.o.O.o.OO.o.O.o.O.o.O.o.O.o.O.o.O.o.O.o.O.o.O.o.O.o.O.o.O.o.O.o.O.o.O.",
" +@+ +@+ +@+ +@+ +@+ +@+ +@+ +@+ +@+ +@+ +@+ +@+ +@+ +@+ +@+ +@@+ +@+ +@+ +@+ +@+ +@+ +@+ +@+ +@+ +@+ +@+ +@+ +@+ +@+ +@+ +@+",
"o   o   o   o   o   o   o   o   o   o   o   o   o   o   o   o    o   o   o   o   o   o   o   o   o   o   o   o   o   o   o   ",
"OOOOOOOOOOOOOOOOOOOOOOOOOOOOOOOOOOOOOOOOOOOOOOOOOOOOOOOOOOOOOOOOOOOOOOOOOOOOOOOOOOOOOOOOOOOOOOOOOOOOOOOOOOOXXXXOOOOOOOOOOOOOO",
"$$$$$$$$$$$$$$$$$$$$$$$$$$$$$$$$$$$$$$$$$$$$$$$$$$$$$$$$$$$$$$$$$$$$$$$$$$$$$$$$$$$$$$$$$$$$$$$$$$$$$$$$$$$$$$$$$$$$$$$$$$$$$"
};
