/* XPM */
static char *result[] = {
/* columns rows colors chars-per-pixel */
"71 81 15 1 ",
"  c #51554D",
". c #84B020",
"X c #A0B094",
"o c #84987D",
"O c #6D9035",
"+ c #717D69",
"@ c #B4C4AC",
"# c #354D18",
"$ c #516904",
"% c #8CC439",
"& c #39412D",
"* c #1C3504",
"= c #102000",
"- c magenta",
"; c white",
/* pixels */
" .Xoo.oooOOooooooOOO Ooooo+O.X@@@@@@@@@@@@X.O #$OOO.$O# o+$+#$O%%OO$OO$",
" Xo.oooooOooXooOoOoo$+Ooo.+OoX%@@@@@@@@@@%XoO+$$$..OO+$+Oo+$$$$OO.OO.O$",
" .ooooooOOOoXoooOOOoo$+Ooo++O.X%%@@@@@@%%X.O+++$O...O$ Oooo+#$$O.OOOOOO",
" oo.oo+OOO+oOXOoooOoo.$+Oo.++OXXX%%%%%%XXXO++.+#O..OO# ooOXO$#$OO.O$.O#",
"&ooooo++OO+OooOoooooOo. +ooX++OoXXXXXXXXoO++Xoo$...O$$+ooOooO$OO..OO.OO",
" OooooO+++OOOO.o+..O.O.X++O.Xo+OOooooooOO+oX.O+$.O.O$O++o.OO$O+O..$$.O$",
" OOooOo++OOOoOoX$O..O.O.X OoX@X+OOOOOOOO+X@XoO $#O..#O+oXoO$#$O%%OOOOO$",
" ooOOooO$OOO.Oo$O..OOooo.X ++o@X++++++++X@o++ X+$$.$# oXOoO$$O%.O.OO.O$",
" ooOoOOO++OOX.O$$O.$+ooOo.X $+o@X$$$$$$X@o+$ X.oO$O$ oXOoO.+#...OO.OO$#",
"&ooOooOOO $OO@Xo$$O$$+oOoOOXo +oX@oooo@Xo+ oXOOoO##$OX@ooX@OO$ O$O.%O$$",
" OoOooOoo+ $Oo@Xoo$XO$$+Oooo.% +ooX@@Xoo+ %.oooO+$$OX@ooX@oO$$$.OOO.$& ",
"&    $+ooo+  $O@Xoo%@%o$$++Oo.X +oX@@Xo+ X.oO++$$o%@%ooX@O$  #OO%%OO$  ",
"&ooXX+ $oooO &$o@XooX%@%o$$+++oX$+oXXo+$Xo+++$$o%@%XooX@o$& O+$OO.%$ +o",
"&ooooXX+ $Oo$ * o@XooXX%@%O$$+Oo+ o@@o +oO+$$O%@%XXooX@o * $o$$OO.O$ +o",
" +OoooOXo $+O$&* +XXoOoXX@%%@o+Oo+ OO +oO+o@%%@XXoOoXOo *&$O+$OO..O$+O+",
" X+OOoOO@o $+O$&=*$O%XOoXXXX%@o++XoOOoX++o@%XXXXoOX%% *=&$O+$ OO.OOO$+X",
" oX++OoOoXO $o+$*== O%@XooX.@@%XO@O@@O@OX%@@.XooX@%O ==*$+o$ O$$O%O+$+o",
"&+o+++oO +XO +o+ =$& +o%@%@X@@@X+@+XX+@+X@@@X@%@%o+ &$= +o+ O+#$..O$$o+",
" +o+++oXo +XO O+ *+o =  +oo@@@X+ o oo o +X@@@oo+  = o+* +O OX+#$.OO$ o+",
" -OO$OOoXo +@ OO$ +o@&**=  +oOO + o@@o + OOo+  =**&@o+ $OO X+ ##%..$+o+",
"&+O.O.OoXX+ o@ ++ +o%&&%$==*   Ooo@@@@ooO   *==$%&&%o+ ++ @o +$$O.O$OX+",
"&O$O $O$OOo +X. $$ +o%oo+&*& +oOO@XXXX@OOo+ &*&+oo%o+ $$ +.+ o$#.OO#+X+",
"&$OO$OO%%OX+ o@@ $$  +o+ *  O.%%X.@..@.X%%.O  * +o+  $$ @@o +X+$OO.$+o+",
"$$O.OO.OOOXX+ o.@o$$$  #* O@@%X.ooOooOoo.X%@@O *#  $$$o@.o +XXo$O.O$$o+",
"$O.OO.O.O$OXX+ +.@@@%%%%%@@oo%.oX@XOOX@Xo.%oo@@%%%%%@@@.+ +XXoo#O.O#+O+",
" $O.$O.OOO$.%Xo+$O+$$$+OoooX@XoXX.oXXo.XXoX@XoooO+$$$+O$+oX%.oO+..$$o++",
"$OO%$O%%$O$oo.XXXo++$+oOX@@@Xo.X.@@@@@@.X.oX@@@XOo+$++oXXX.oo.Oo#O# O++",
"$$O..O..O$o%XXXX@%%@%%%@%%X..XX.@X@@@@X@.XX..X%%@%%%@%%@XXXX%oo$$O$ +++",
"#$OOOOO%%OXXXoooOOOoooooOOooo..@X@@@@@@X@..oooOOoooooOOOoooXXXXO$$$+oO+",
"$$O.OO.O.%$ooooo+ $+o%%%%%@@@@@@@@%..%@@X@@@@@%%%%%o+$ +ooooo.X.o#$O+++",
" #$OO.OO.%$Oo+$&&$$X@XXXXXX@XX%X@%X@@X%@X%XX@XXXXXX@X$$&&$+oOoo.XXO++++",
" $$O%.OOO o+$& +ooX@XX.ooOXXX%X%X.oXXo.X%X%XXXOoo.XX@Xoo+ &$+oooo.XoO+O",
" $&OOO.$.$$& Ooooo@X.oooooOOOOXX.XOOOOX.XXOOOOooooo.X@ooooO &$+ooo.oO++",
"&$OO$.O$ & +ooXX.o@XoooOOoOoo.o...X@@X...o.ooOoOOoooX@o.XXoo+ & +OoOO++",
"&+$O.O$$ +oooX..oo%oo+   +Oooo..oo.XX.oo..oooO+   +oo%oo..Xoo+$ &OoOoO+",
"&+$$OO$$+Xo.o..Xooo++ &==& +O$OoOooooooOoOoO+ &==& ++oooX..o.+$O$.O$oO+",
"& o$$$+O.ooXX.X.ooO  &====& $..O$O+OO+OOOO++ &====&  Ooo.X.XX+#$O%.OOo ",
"&OoO$$oXoXo..ooooOoO++++$ &=&O.$          #&=& $++++OoOoooo..o#$%.O OoO",
"&o+&+oOXXX@@@X@@XXoooOoooO+$#$O$===========#$+OoooOoooXX@@X@@@$O..#$&+o",
"&+ ++ooOooooo+OOO+OoooOooOo$#O$#+$$  $$+++OOOoOooOoooO+OOO+ooo$$O%$#+ +",
"& +oO+      &==&&         $+$##OoOooooOoOoOO+$         &&==&   $.O$#o+ ",
"&  &==&+oX@Xo+ == +oX@Xo+ &==     ====     ==& +oX@Xo+ == +oX@+#O.#$&  ",
"&Xo+ & +oXXXO+ =& +oX@Xo+  = OX@XO == OX@XO =  +oX@Xo+ &= +OXXX$OOO$+oX",
"&o+$&-&+OoX.+$&-= +oX@Xo+ &-&OoXoO=--=OoXoO&-& +oX@Xo+ =-&$+.XoO.O$&$+o",
"&o+ =-= +oXo+ =-= +oXXXO+ =-=$+o+$=--=$+o+$=-= +OXXXo+ =-= +oXo#$%$$ +o",
"&+$&---&$Oo+$&---&+OoX.+$&---&+O$&----&$O+&---&$+.XoO+&---&$+oO$$.O &$+",
"&+ =---= +o+ =---= +oXo+ =---= + =----= + =---= +oXo+ =---= +o+ #OO = +",
"& &-----&$+$&-----&$Oo+$&-----&$&------&$&-----&$+oO$&-----&$+$&$O. -& ",
"& =-----= + =-----= +o+ =-----= =------= =-----= +o+ =-----= + =#OO--= ",
"&&-------& &-------&$+$&-------=--------=-------&$+$&-------& &-$%O---&",
"&=-------= =-------= + =------------------------= + =-------= =$O.$---=",
"----------&---------& &--------------------------& &---------&--$O-----",
"----------=---------= =--------------------------= =---------=---$-----",
"---------------------=----------------------------=--------------------",
"-----------------------------------------------------------------------",
"-----=---------=-----------=-------==-------=-----------=---------=----",
"-----&---------&-----------&-------&&-------&-----------&---------&----",
"----= =-------= =---------= =-----=  =-----= =---------= =-------= =---",
"----& &-------& &---------& &-----&  &-----& &---------& &-------& &---",
"---= + =-----= + =-------= + =---= ++ =---= + =-------= + =-----= + =--",
"---&$+$&-----&$+$&-------&$+$&---&$++$&---&$+$&-------&$+$&-----&$+$&--",
"--= +o+ =---= +o+ =-----= +o+ =-= +oo+ =-= +o+ =-----= +o+ =---= +o+ =-",
"--&$+oO$&---&$+oO$&-----&$+oO$&-&$+oo+$&-&$Oo+$&-----&$Oo+$&---&$Oo+$&-",
"&= +oXo+ =-= +oXo+ =---= +oXo+ = +oXXo+ = +oXo+ =---= +oXo+ =-= +oXo+ =",
"&=$+oXOoO$.&$OoXoO+ =--= +oXo+ =$+OooO+$= +oXo+ =--= +OoXoO$&==OoOXo++=",
"+@+OO.O$$.$ $OoXoO+ =-=  oXXX@@@@@@@@@@@@@@XXXo  =-= +OoXoO$ = +OoX+ +@",
" X@O...$OO$ +OoXoo+$ -= +o@@XXXXXXXXXXXXXXXX@@o+ =O $+ooXoO+ =   +@@@X.",
" oO$OO..O.O+$++oOoOo$$OoX@XoOOOoOoXXXXoOoOOOoX@Xo%OO$Oo o   +%@@@XXXXX.",
"&o$$$OO...O$@@@@@@@@O$@@@%oOooOOOooooooOOOooOo$%%.O%$O$@X@@X%%X.XX.X.oo",
"&O$#$$OOOO.OXXXXXX$.O$X%XoOOo++$ $$  O$ $++oOO%%.OO..O$OXXXXX.X.Xo..ooO",
"&O++# $$O...O$.XXO.O$XXXooOO+$ $$++OO+++$ $+O$%.OO.O%%O$X...%..OO.OO++O",
" O$ + #$$OO..$$$$..$$oooOoO+$ $+X.oXXo.X+$ $$O$O$$..O.OO$.o%OOOOOo++ $O",
"&+O  $ #$OOOO.OO.OO$O++o ++$$+OX.@@@@@@.XO+$$$+  $O...%.$++++++++$$  O+",
"#+++  $$$$O$$$.O.OOO$###$$ $+oX.@%@@@@%@.Xo+$ $$$$$O.OO%O$$+$$   O  +++",
"#+++++ $$OOOOOOOOO$OO$#$  +oXX.@%@XXXX@%@.XXo+  $$ OO.O..OO $ ++O+++$+$",
"&+++++$O$OOO.$#$.$#$OOOOoXX@@@@X@%XXXX%@X@@@@XXoOO$$$.%%O.O$$++$+$+++++",
"&+OO++$$OO.$$$$###  O$.%OOOXXXXXXXX@@XXXXXXXXX%Xo++O$OO%...O..O$O+O+$++",
"&oOOO#$$O.O$ #   ++  $OO.OO$$oX%X.XXXX.X%Xooo.X%Xo+O$$$O.%%.o...$O$$+$+",
"&++++O#$$O$#$O$$oOO++OXOO.%OO$o...X@@X...o.O%Ooo.Xo+O$OO..O....%%..%O+$",
"&+++OO$$O.$$$oO$++++oXX$OO..O$++oo.XX.oo+++OOOOooXXo$OO$OO..O.O..%..O$+",
"&o+ooO+#$O.$O+++OOOO.X.O....O$$$++oooo+++O++++OOo.X$$$$$O$OOO..O.O%O.O$"
};
