/* XPM */
static char *result[] = {
/* columns rows colors chars-per-pixel */
"32 32 5 1 ",
"  c #FC7460",
". c #D82800",
"X c black",
"o c #A40000",
"O c white",
/* pixels */
"  .XoXo..ooXo.. oo.ooXo. XoX. . ",
". .X.o. ooX.....o. X.o. .XX.   .",
"..oXX.. X. .XooX...oXX. X.Xo.  .",
"ooXo.X.o.. o.X. .ooX  Xo.. Xo..o",
"XXo.. oo.oooo...oXX.  Xo.XXXoooX",
"o..o. o.X..o..o.o.Xo.Xo.X.  XXX.",
". o.o.XX.oo.o Xo. oXXX X.  .X.Xo",
"..X..ooX.oXo Xo...X..ooXo  X Xo.",
".ooXo.. XooXoXo..ooXo.. Xo.ooXo.",
"ooXX....oXXX.o. ooX.....oXXX.o. ",
"X  .XooX...oX.. X. .XooX...oX.. ",
"     X. .ooo.X.o.. o.X. .ooo.X.o",
".   .X..oXo..o ..oooo...oXo.. oo",
"o. .oXo.o..o.XXXX..o..o.o..o. o.",
".XooX XoX o.X.  .Xo.o Xo. o.o.Xo",
".oXX Xo.X.XX.    .Xo Xo...X..oo.",
"oX.o.Xo.X.X..oX.oX.o.Xo.X.X..oX.",
"X.oooXoXX.Xo.Xo.X.oooXoXX.Xo.Xo.",
"X.ooX.oX.oXooXX.X.ooX.oX.oXooXX.",
"XoXX.ooXoX.oXX.oXoXX.ooXoX.oXX.o",
"XXoX.oXXo.ooX.oXXXoX.oXXo.ooX.oX",
".oXXoXXoX.oXXoXX.oXXoXXoX.oXXoXX",
"ooXoXX.oXoX.ooX.ooXoXX.oXoX.ooX.",
"oXooX.oXoXooooX.oXooX.oXoXooooX.",
"Xo.XoooXoXXooXoXXo.XoooXoXXooXoX",
"Xoo.XoooXXXoXXo.Xoo.XoooXXXoXXo.",
".XooXXXoX..XXooo.XooXXXoX..XXooo",
"ooX... X.oooXXXXooX... X.oooXXXX",
"XX.ooo. XooXXo..XX.ooo. XooXXo..",
".Xoooo..XXXXoooo.Xoooo..XXXXoooo",
"XXXoooo.XooXXoooXXXoooo.XooXXooo",
"ooXXXXXX...oXXXXooXXXXXX...oXXXX"
};
