/* XPM */
static char *_b2206a65f624e1b98349e4325db8467FqTEUu877gC4hcvM[] = {
/* columns rows colors chars-per-pixel */
"62 62 6 1 ",
"  c #99D9EA",
". c black",
"X c #F87018",
"o c #E03000",
"O c #500000",
"+ c white",
/* pixels */
"   ............      ....               ...................   ",
"  ..XXXXXXXXXXX.   ..XXXX.................XXXXXXXXXXXXX.XXX.  ",
" .XXXXXXXXXXXXXX. .XXXXXXXXXXXXXXXXXXXX..XXXXXXXXXXXXX.XXXXX. ",
".XXXXXXXXXXXXXXXX..XXXXXXXXXXXXXXXXXXXXX.XXXXXXXXXXXXX.XXXXXX.",
"XXXXXXXXXXXXXXXXX.XXXXXXXXXXXXXXXXXXXXXX.XXXXXXXXXXXX.XXXXXXX.",
"XXXXXXXXXXXXXXXXX.XXXXXXXXXXXXXXXXXXXXXXo.XXXXXXXXXoo.XXXXXXX.",
"XXXXXXXXXXXXXXXXXX..XXXXXXXXXXXXXXXXXXXXo.oXXXXXXXoo.oXXXXXX..",
"XXXXXXXXXXXXXXXXXX..XXXXXXXXXXXXXXXXXXXXo.ooXXXXoooo.oXXXXXX..",
"XXXXXXXXXXXXXXXXXX..XXXXXXXXXXXXXXXXXXXXo.ooooooo....ooXXXXX.o",
".XXXXXXXXXXXXXXXXXX.XXXXXXXXXXXXXXXXXXXoo.ooooo.......ooXXXo.o",
".XXXXXXXXXXXXXXXXXX.XXXXXXXXXXXXXXXXXXXooooooo.XXXX....oooo.oo",
".oXXXXXXXXXXXXXXXXo..XXXXXXXXXXXXXXXXXoooooo..XXXXXXX..oo..ooo",
".ooXXXXXXXXXXXXXXooo.XXXXXXXXXXXXXXXXoooooo.XXXXXXXXXX....oooo",
".oooXXXXXXXXXXXXoooo.XXXXXXXXXXXXXXXoooooO.XXXXXXXXXXXX...oooo",
"..oooXXXXXXXXXoooooo..oXXXXXXXXXXXXoooooO.XXXXXXXXXXXXX...oooo",
"..oooooXXXXXXooooooo..ooXXXXXXXXXXoooooo.oXXXXXXXXXXXXXX.ooooo",
"...OOOoooooooooooooO..oooXXXXXXXXooooooO.XXXXXXXXXXXXXXXo.oooo",
".XX...OooooooooooOO....ooooooooooooooooO.oXXXXXXXXXXXXXXo.ooo.",
".XXX...OOoooooOOO.......ooooooooooooooOO.oXXXXXXXXXXXXXoo.ooo.",
".XXXX....OOOOO.....XXXXX.......oooooOOOO.ooXXXXXXXXXXXoo.oooo.",
".XXXXX............XXXXXXXXXXXXX.OOOOOOX..oooXXXXXXXXXooo.oooo.",
".XXXXXXX.........XXXXXXXXXXXXXXX.O..XXXX..oooXXXXXXXooo.OXooo.",
".XXXXXXXXX.......XXXXXXXXXXXXXXX..XXXXXX..ooooooooooooo.OXXoo.",
".XXXXXXXXXXX....XXXXXXXXXXXXXXXXo.XXXXXX...ooooooooooo.OXXXXo.",
"..XXXXXXXXXXX...XXXXXXXXXXXXXXXXo.XXXXXXX.............OOXXXXo.",
" .XXXXXXXXXXXX.XXXXXXXXXXXXXXXXXo.XXXXXXXX....OOOOOOOOOXXXXXo.",
"  .XXXXXXXXXXX.XXXXXXXXXXXXXXXXXo.oXXXXXXXX.XXXXXXXXXXXXXXXXo.",
"  .XXXXXXXXXXX.XXXXXXXXXXXXXXXXXo..oXXXXXXXXXXXXXXXXXXXXXXXXo.",
"  .XXXXXXXXXXX.XXXXXXXXXXXXXXXXXo..ooXXXXoooXXXXXXXXXXXXXXXXo.",
"  .XXXXXXXXXXX.XXXXXXXXXXXXXXXXoo..oooooooooXXXXXXXXXXXXXXXoo.",
" .oXXXXXXXXXXo.XXXXXXXXXXXXXXooo......oooooooXXXXXXXXXXXXXXoo.",
" .ooXXXXXXXXoo.oXXXXXXXXXXXXoooo...XXX...oooooXXXXXXXXXXXXoooo",
" .oooXXXXXoooo.ooXXXXXXXXXoooooo.XXXXXXXX..oooooXXXXXXXXXooooo",
" .oooooooooooo..ooXXXXXXXoooooO.XXXXXXXXXXX.OOoooooooooooooooo",
" .ooOOOoooooo....ooooooooooooO.XXXXXXXXXXXXo.OOooooooooooooOOo",
" .oo..OOOOO..XX...oooooooooOO..XXXXXXXXXXXXXo..OooooooooooOOoo",
".ooooX.....XXXXX..OoooooooOO...XXXXXXXXXXXXXo...OOOOOOOOOO.ooo",
".oooXXXXXXXXXXXXXo.OooOOOO.....XXXXXXXXXXXXXo.............oooo",
"oooooXXXXXXXXXXXXo..OO.........XXXXXXXXXXXXXX..XXXXXXXXXXXXooo",
"ooooooXXXXXXXXXoo.....XXX......XXXXXXXXXXXXXX.XXXXXXXXXXXXXooo",
"oooooooooooooooo...XXXXXXXXX....XXXXXXXXXXXXX.XXXXXXXXXXXXXooo",
"oOOOO...OOOOOOO..XXXXXXXXXXXXX..oXXXXXXXXXXXo.XXXXXXXXXXXXXooo",
"ooO..XXX........XXXXXXXXXXXXXXX.ooXXXXXXXXXo.XXXXXXXXXXXXXoooo",
"ooXXXXXXXXX....XXXXXXXXXXXXXXXXo.oooXXXXXXoo.XXXXXXXXXXXXooooo",
"oXXXXXXXXXXX..XXXXXXXXXXXXXXXXXo..oooooooooo.oXXXXXXXXXXo...oo",
"oXXXXXXXXXXXX.XXXXXXXXXXXXXXXXXoo.....ooooo.oooooXXXXXXo.ooo..",
"oXXXXXXXXXXX.XXXXXXXXXXXXXXXXXXoo..........oooXXXXooooooooooo.",
"oXXXXXXXXXXX.XXXXXXXXXXXXXXXXXXoo..........oXXXXXXXXXXXXXXXooo",
".oXXXXXXXXXX.XXXXXXXXXXXXXXXXXXoo.XXXXXXX...XXXXXXXXXXXXXXXXoo",
".ooXXXXXXXX.ooXXXXXXXXXXXXXXXXooo.XXXXXXXX..XXXXXXXXXXXXXXXXXo",
".oooXXXXXoo.oooXXXXXXXXXXXXXXoooo.XXXXXXXXXXXXXXXXXXXXXXXXXXXo",
".oooooooooo.ooooXXXXXXXXXXooooooo.XXXXXXXXXXoXXXXXXXXXXXXXXXoo",
".oooooooooo.ooooooXXXXXooooooooO.oXXXXXXXXXXoooooooooooooXXooo",
".ooooX.....OOooooooooooooooooOO.oooXXXXXXXXooooooooooooooooooo",
".ooXXXXXXX..OoooooooooooooooO....ooooooXXXoooooo.........ooooo",
".oXXXXXXXXXX.OoooooooooooooO........ooooooooooo.XXXXXXXXX.oooO",
".oXXXXXXXXXXX.OoooooooooooO....ooooo...oooooooo.XXXXXXXXXX.oOO",
"oXXXXXXXXXXXXX.OOoooooooOO.OOoooooooooooooooooo.XXXXXXXXXoo..O",
"oooooXXXXXXXXXX..OOOOOOO..Ooooooooooooooooooooo.oXXXXXXoooo...",
"ooooooooXXXXXXXXX.......OOoooooooooooooooooooo.Ooooooooooooo. ",
"OoooooooooooooooooooooooooooooooooooooOOOOOooo.OoooooooooooO. ",
".OOooooooooooooooooooooooooooooooOOOOO.....OOO.OoooooooooOO.  "
};
