/* XPM */
static char *_a59210c97254b6d9480c6b8f84fa00b3yDBdCSj0n9LcXuI[] = {
/* columns rows colors chars-per-pixel */
"31 31 4 1 ",
"  c black",
". c #8000F0",
"X c #44009C",
"o c white",
/* pixels */
" .... ..... X...... X.... ... .",
" XXXX XXXXX XX..... XX... XXX X",
"            XXXXXXX XXXXX      ",
" X..... ...               X....",
" XX.... ... X.. X.... X.. XX...",
" XXXXXX     X.. XX... X.. X....",
"        X.. XXX XXXXX X.. XX.X.",
" X..... XX.           XX. XXXXX",
" XX.... X.. X.... X.. XXX      ",
" X..... XX. XX... X..     X....",
" XX.X.X XXX XXXXX XXX ... XX...",
" XXXXXX               XXX XXXXX",
"        X.... X......          ",
" .. ... XX... XX..... ...... ..",
" XX XXX XXXXX XXXXXXX XXXXXX XX",
"                               ",
" XX XXXXX XXXXXX XX XXX XXXXX X",
" XX XXXXX XXXXXX XX XXX XXXXX X",
" XX                            ",
" XX XXXX XXXX XXXXX XXX XXX XXX",
" XX XXXX XXXX XXXXX XXX XXX XXX",
" XX XXXX XXXX XXXXX XXX XXX XXX",
"                        XXX XXX",
" XXXX. XXX. XXX. XXXX.         ",
" XXXXX XXXX XXXX XXXXX XXXXXXXX",
" XXXXX XXXX XXXX       XXXXXXXX",
" XXXXX XXXX XXXX XXX.. XXXXXXXX",
"                 XXXX.         ",
" X. XXX.. XXXX.. XXXXX XX. XXXX",
" XX XXXX. XXXXX. XXXXX XXX XXXX",
" XX XXXXX XXXXXX XXXXX XXX XXXX"
};
